<?xml version="1.0" encoding="utf-8"?>
<!-- Generator: Moho 14.3 build 20241125 -->
<!DOCTYPE svg PUBLIC "-//W3C//DTD SVG 1.1//EN" "http://www.w3.org/Graphics/SVG/1.1/DTD/svg11.dtd">
<svg version="1.1" id="Frame_0" xmlns="http://www.w3.org/2000/svg" xmlns:xlink="http://www.w3.org/1999/xlink" width="200px" height="80px">
<g id="logo.webp_(Traced)">
<path id="S1" fill="#000000" fill-rule="evenodd" stroke="none" d="M 199.114 67.858 C 199.661 67.722 199.402 67.095 199.114 67.229 C 198.570 67.365 198.784 67.992 199.114 67.858 M 139.473 65.931 C 139.663 65.739 139.855 65.547 140.049 65.355 C 139.855 65.547 139.663 65.739 139.473 65.931 M 135.359 61.957 C 135.348 61.897 135.416 60.745 135.781 60.950 C 136.197 61.191 136.440 63.106 136.344 63.626 C 136.487 63.637 136.528 64.778 136.344 64.573 C 135.749 64.287 135.405 62.473 135.359 61.957 M 123.334 61.321 C 123.114 60.567 123.473 60.037 123.914 60.292 C 124.136 60.360 126.747 62.473 125.946 63.111 C 125.643 63.364 125.067 63.248 124.866 63.111 C 124.359 62.850 123.505 61.798 123.334 61.321 M 138.896 56.762 C 137.691 56.714 136.394 56.583 135.288 57.147 C 135.045 57.287 133.134 58.622 133.048 58.787 C 133.113 58.687 131.647 65.136 133.820 66.357 C 134.738 66.569 136.591 66.398 137.744 66.357 C 142.545 66.514 147.346 66.516 152.150 66.357 C 153.109 66.507 155.031 66.637 155.806 66.019 C 156.952 65.095 156.915 58.149 155.806 57.287 C 155.031 56.614 153.589 56.820 152.726 56.762 C 148.116 56.776 143.506 56.711 138.896 56.762 M 36.004 58.500 C 36.039 58.440 36.325 57.287 36.620 57.492 C 36.901 57.864 36.443 60.168 36.325 60.574 C 36.325 60.555 36.162 61.321 36.004 61.116 C 35.622 60.774 35.927 59.016 36.004 58.500 M 23.648 53.254 C 22.483 53.255 16.733 53.112 16.097 53.830 C 15.542 54.406 15.702 56.135 15.581 56.860 C 15.497 61.001 14.642 63.050 19.614 63.050 C 24.603 63.095 29.614 63.060 34.597 63.050 C 35.749 62.937 37.950 63.194 38.954 62.473 C 40.016 61.626 39.746 55.904 38.954 55.121 C 35.860 52.000 27.882 53.254 23.648 53.254 M 129.100 49.220 C 129.291 49.028 129.483 48.836 129.676 48.644 C 129.483 48.836 129.291 49.028 129.100 49.220 M 42.664 48.067 C 42.856 47.876 43.048 47.683 43.240 47.491 C 43.048 47.683 42.856 47.876 42.664 48.067 M 122.762 44.610 C 122.952 44.418 123.144 44.226 123.338 44.034 C 123.144 44.226 122.952 44.418 122.762 44.610 M 89.340 44.121 C 89.340 42.057 81.371 43.472 81.443 43.457 C 79.413 44.774 83.001 46.339 83.001 47.525 C 83.001 49.220 79.206 50.254 79.104 53.256 C 78.946 57.885 83.269 55.908 85.543 55.986 C 87.035 56.253 88.312 57.065 89.792 55.986 C 93.825 52.576 87.724 50.176 87.003 48.070 C 86.369 46.220 89.340 45.765 89.340 44.121 M 4.056 44.034 C 4.248 43.842 4.440 43.650 4.632 43.457 C 4.440 43.650 4.248 43.842 4.056 44.034 M 133.710 43.457 C 133.901 43.266 134.093 43.074 134.286 42.881 C 134.093 43.074 133.901 43.266 133.710 43.457 M 125.067 43.457 C 125.257 43.266 125.449 43.074 125.643 42.881 C 125.449 43.074 125.257 43.266 125.067 43.457 M 50.155 42.305 C 50.347 42.113 50.539 41.921 50.731 41.729 C 50.539 41.921 50.347 42.113 50.155 42.305 M 10.971 42.305 C 11.163 42.113 11.355 41.921 11.547 41.729 C 11.355 41.921 11.163 42.113 10.971 42.305 M 179.233 41.729 C 179.424 41.537 179.616 41.345 179.810 41.152 C 179.616 41.345 179.424 41.537 179.233 41.729 M 12.123 41.152 C 12.315 40.961 12.507 40.769 12.699 40.576 C 12.507 40.769 12.315 40.961 12.123 41.152 M 122.762 39.424 C 122.952 39.232 123.144 39.040 123.338 38.848 C 123.144 39.040 122.952 39.232 122.762 39.424 M 134.286 37.119 C 134.477 36.927 134.669 36.735 134.863 36.543 C 134.669 36.735 134.477 36.927 134.286 37.119 M 90.492 39.559 C 93.949 38.653 94.945 35.239 91.068 36.253 C 87.972 37.119 87.309 40.399 90.492 39.559 M 81.754 39.651 C 82.917 37.729 77.815 35.205 76.608 36.543 C 74.772 38.341 80.913 41.041 81.754 39.651 M 137.168 35.391 C 136.359 35.402 133.528 35.390 132.999 35.966 C 132.558 36.543 132.558 39.250 132.558 40.034 C 132.550 41.034 132.346 44.034 133.067 44.669 C 133.687 45.265 137.861 45.186 138.896 45.186 C 142.545 45.222 146.196 45.194 149.845 45.186 C 155.273 45.186 154.567 43.643 154.453 38.850 C 154.428 37.836 154.455 36.692 153.622 36.001 C 152.726 35.390 150.932 35.398 149.845 35.391 C 145.622 35.390 141.391 35.390 137.168 35.391 M 122.453 36.543 C 122.087 36.253 122.502 35.818 122.762 36.027 C 123.195 36.246 122.762 36.696 122.453 36.543 M 74.697 35.966 C 75.174 34.831 75.730 32.773 76.898 32.069 C 77.543 31.933 78.820 31.939 79.543 32.069 C 82.249 31.933 91.385 31.356 93.188 32.781 C 95.232 34.456 96.423 38.271 97.404 40.576 C 98.829 44.039 99.506 45.979 98.987 49.796 C 98.937 50.163 98.559 52.276 98.333 52.472 C 98.100 52.677 97.928 51.014 97.915 50.949 C 97.746 49.976 96.699 46.205 95.469 46.205 C 95.007 46.205 95.278 47.326 95.469 47.517 C 95.555 48.991 95.678 50.000 95.469 51.525 C 95.266 57.352 93.029 55.832 90.109 59.592 C 89.340 60.484 88.318 63.410 87.781 62.659 C 87.610 62.473 87.448 61.375 87.138 61.321 C 85.306 60.790 85.278 64.366 83.535 64.004 C 80.696 63.425 80.468 60.412 78.782 58.591 C 77.727 57.452 75.772 56.464 75.196 55.333 C 74.353 53.681 74.460 50.993 74.631 49.222 C 74.778 48.806 75.148 47.326 74.631 47.120 C 73.513 46.770 72.052 49.626 71.792 50.372 C 71.743 50.412 71.372 51.525 71.099 51.320 C 70.716 50.992 70.900 47.503 71.099 46.915 C 71.582 43.268 73.205 39.424 74.697 35.966 M 124.039 33.261 C 123.809 32.930 124.490 31.933 124.933 32.117 C 125.499 32.509 124.396 33.780 124.039 33.261 M 122.185 31.356 C 122.376 31.165 122.568 30.973 122.762 30.780 C 122.568 30.973 122.376 31.165 122.185 31.356 M 120.958 30.650 C 120.957 30.545 120.957 30.440 120.958 30.334 C 120.957 30.440 120.957 30.545 120.958 30.650 M 70.007 32.509 C 70.772 29.628 70.249 24.441 74.921 24.796 C 76.439 25.018 77.238 26.204 76.919 26.953 C 76.561 27.710 75.308 26.816 74.357 28.067 C 73.779 28.906 73.611 31.356 73.157 32.509 C 72.491 34.267 71.372 35.583 70.324 37.119 C 69.747 37.890 68.280 41.196 68.160 38.848 C 68.159 38.656 68.159 38.464 68.160 38.271 C 68.469 36.246 69.498 34.452 70.007 32.509 M 123.338 22.136 C 123.529 21.945 123.721 21.753 123.914 21.560 C 123.721 21.753 123.529 21.945 123.338 22.136 M 81.161 27.118 C 80.326 26.888 77.238 22.777 80.696 21.777 C 82.153 21.343 88.299 21.560 89.916 21.777 C 90.246 21.848 92.463 22.182 92.592 22.408 C 92.721 22.713 92.139 22.936 92.050 22.997 C 91.310 23.502 90.650 23.940 89.916 24.515 C 89.632 24.780 88.593 25.852 88.187 25.965 C 87.580 26.194 89.121 23.470 87.961 23.518 C 88.732 23.486 82.561 25.318 83.163 24.915 C 82.425 25.392 81.825 27.323 81.161 27.118 M 127.372 21.560 C 127.562 21.369 127.754 21.177 127.948 20.984 C 127.754 21.177 127.562 21.369 127.372 21.560 M 122.310 20.984 C 121.497 20.984 121.416 19.848 122.310 19.646 C 123.338 19.382 123.338 20.984 122.310 20.984 M 48.426 19.255 C 48.618 19.064 48.810 18.872 49.003 18.679 C 48.810 18.872 48.618 19.064 48.426 19.255 M 9.242 19.255 C 9.434 19.064 9.626 18.872 9.818 18.679 C 9.626 18.872 9.434 19.064 9.242 19.255 M 180.962 16.950 C 179.355 16.950 171.972 16.587 171.099 17.527 C 170.493 18.103 170.590 19.606 170.590 20.408 C 170.560 23.599 169.437 26.634 173.471 26.746 C 177.843 26.863 184.538 25.996 185.400 31.933 C 186.148 37.391 179.810 38.848 175.776 38.848 C 172.683 38.899 170.697 37.904 170.590 41.731 C 170.555 43.102 170.180 47.688 171.438 48.371 C 172.870 49.220 178.224 47.718 180.925 49.581 C 184.094 51.765 184.212 57.864 184.996 61.321 C 185.367 63.050 185.801 65.065 187.301 65.998 C 188.443 66.616 191.670 66.507 193.063 66.507 C 194.216 66.523 197.020 66.806 197.964 65.998 C 199.308 64.847 197.071 61.897 196.653 60.317 C 196.243 58.844 196.479 57.354 195.897 55.593 C 195.614 54.734 194.633 53.338 194.486 53.063 C 194.495 52.247 196.057 52.277 194.486 48.067 C 193.960 47.035 190.582 42.533 190.582 42.576 C 190.584 42.374 193.864 40.000 194.366 39.424 C 196.736 36.401 197.222 33.276 197.086 29.628 C 196.731 20.049 189.383 16.966 180.962 16.950 M 161.370 16.950 C 160.568 16.958 159.027 16.950 158.422 17.527 C 157.546 18.335 157.912 25.712 157.912 27.323 C 157.911 37.119 157.911 46.915 157.912 56.711 C 157.912 58.266 157.553 65.129 158.422 65.998 C 158.963 66.539 160.090 66.507 160.794 66.507 C 162.329 66.507 163.865 66.507 165.404 66.507 C 166.292 66.507 168.275 66.650 168.861 65.998 C 169.437 65.451 169.415 64.334 169.436 63.626 C 169.437 60.939 169.437 58.244 169.436 55.559 C 169.434 44.034 169.434 32.509 169.436 20.984 C 169.435 20.074 169.611 18.143 168.861 17.527 C 167.972 16.504 162.832 16.950 161.370 16.950 M 139.473 16.950 C 138.210 16.950 133.885 16.641 133.067 17.527 C 132.293 18.234 132.293 25.463 133.067 26.237 C 133.672 26.842 135.214 26.746 136.015 26.746 C 141.200 26.794 146.387 26.758 151.574 26.746 C 152.596 26.746 154.455 26.880 155.335 26.237 C 156.510 25.327 156.557 18.939 155.607 17.799 C 154.915 16.819 153.260 16.960 152.150 16.950 C 147.923 16.951 143.697 16.951 139.473 16.950 M 123.914 17.389 C 122.762 17.328 120.791 16.485 119.814 17.389 C 117.937 19.329 120.730 23.865 120.604 24.452 C 120.457 25.018 119.663 25.654 119.413 27.899 C 119.142 29.837 119.659 31.356 119.413 33.085 C 119.659 34.587 119.304 36.135 119.413 37.695 C 119.294 43.264 119.245 48.838 119.413 54.406 C 119.304 56.569 119.123 62.473 119.880 64.043 C 120.359 64.841 121.152 65.749 122.138 65.710 C 123.338 65.660 122.729 63.891 123.220 63.843 C 123.707 63.795 124.754 65.064 125.213 65.515 C 126.487 66.258 129.334 66.836 130.556 65.515 C 131.744 64.500 131.402 58.543 131.399 56.711 C 131.405 52.497 131.514 48.247 131.399 44.041 C 131.358 42.881 131.043 41.813 131.038 41.004 C 131.029 40.000 131.372 38.489 131.404 37.119 C 131.516 31.948 131.405 26.746 131.404 21.560 C 131.390 14.936 128.735 17.275 123.914 17.389 M 45.545 13.493 C 44.657 13.495 42.664 13.347 42.021 14.069 C 41.417 14.645 41.511 16.148 41.511 16.950 C 41.511 20.024 41.511 23.097 41.511 26.170 C 41.511 34.625 41.632 43.078 41.511 51.527 C 41.490 53.254 41.362 61.188 42.088 62.201 C 42.973 63.421 45.545 62.938 46.924 62.917 C 48.426 62.892 52.129 63.444 53.036 62.211 C 53.950 61.082 53.584 53.403 53.611 51.525 C 53.765 40.392 53.613 29.240 53.611 18.103 C 53.599 11.891 50.662 13.493 45.545 13.493 M 9.818 13.493 C 8.525 13.493 3.628 13.211 2.836 14.069 C 2.232 14.645 2.327 16.148 2.327 16.950 C 2.327 20.024 2.327 23.097 2.327 26.170 C 2.327 37.322 2.764 48.534 2.327 59.669 C 2.241 63.802 3.263 63.050 7.740 62.917 C 9.358 62.891 13.396 63.626 14.066 61.897 C 14.273 61.330 14.428 51.129 14.427 49.796 C 14.385 40.390 14.530 30.973 14.427 21.560 C 14.408 20.009 14.696 14.867 13.579 14.069 C 12.699 13.365 10.835 13.495 9.818 13.493 M 103.169 14.069 C 96.464 12.097 86.435 10.880 79.543 12.004 C 72.159 13.208 65.337 16.950 61.104 23.289 C 52.188 36.854 55.832 59.786 72.052 65.931 C 79.142 68.579 87.174 67.941 93.949 64.587 C 95.343 63.897 100.864 59.935 100.829 59.956 C 101.586 59.706 101.430 61.507 101.438 61.902 C 101.441 62.908 101.218 65.931 101.950 66.564 C 102.956 67.480 105.583 66.033 106.627 65.591 C 111.580 63.497 114.681 63.825 114.694 57.864 C 114.693 50.949 114.693 44.034 114.694 37.119 C 114.692 36.228 114.844 34.253 114.118 33.661 C 113.313 32.723 105.928 33.085 104.322 33.085 C 103.350 33.087 101.079 32.821 100.635 33.934 C 100.416 34.489 100.757 36.291 100.635 37.119 C 100.754 37.119 100.698 37.871 100.635 37.871 C 100.288 37.871 100.158 37.119 100.139 37.119 C 99.891 36.282 99.667 35.534 99.326 34.814 C 99.445 35.064 94.778 27.791 95.102 28.213 C 94.206 27.199 92.772 28.475 92.463 26.746 C 92.221 25.766 93.138 23.636 93.949 23.289 C 94.776 22.791 97.014 23.865 98.559 23.646 C 100.071 23.434 104.438 21.076 106.051 20.269 C 106.960 19.832 110.575 18.375 110.278 17.102 C 110.009 15.951 104.322 14.330 103.169 14.069 Z"/>
<path id="S2" fill="#ffffff" fill-rule="evenodd" stroke="none" d="M 199.114 67.858 C 199.661 67.722 199.402 67.095 199.114 67.229 C 198.570 67.365 198.784 67.992 199.114 67.858 M 139.473 65.931 C 139.663 65.739 139.855 65.547 140.049 65.355 C 139.855 65.547 139.663 65.739 139.473 65.931 M 135.359 61.957 C 135.348 61.897 135.416 60.745 135.781 60.950 C 136.197 61.191 136.440 63.106 136.344 63.626 C 136.487 63.637 136.528 64.778 136.344 64.573 C 135.749 64.287 135.405 62.473 135.359 61.957 M 123.334 61.321 C 123.114 60.567 123.473 60.037 123.914 60.292 C 124.136 60.360 126.747 62.473 125.946 63.111 C 125.643 63.364 125.067 63.248 124.866 63.111 C 124.359 62.850 123.505 61.798 123.334 61.321 M 138.896 56.762 C 137.691 56.714 136.394 56.583 135.288 57.147 C 135.045 57.287 133.134 58.622 133.048 58.787 C 133.113 58.687 131.647 65.136 133.820 66.357 C 134.738 66.569 136.591 66.398 137.744 66.357 C 142.545 66.514 147.346 66.516 152.150 66.357 C 153.109 66.507 155.031 66.637 155.806 66.019 C 156.952 65.095 156.915 58.149 155.806 57.287 C 155.031 56.614 153.589 56.820 152.726 56.762 C 148.116 56.776 143.506 56.711 138.896 56.762 M 36.004 58.500 C 36.039 58.440 36.325 57.287 36.620 57.492 C 36.901 57.864 36.443 60.168 36.325 60.574 C 36.325 60.555 36.162 61.321 36.004 61.116 C 35.622 60.774 35.927 59.016 36.004 58.500 M 23.648 53.254 C 22.483 53.255 16.733 53.112 16.097 53.830 C 15.542 54.406 15.702 56.135 15.581 56.860 C 15.497 61.001 14.642 63.050 19.614 63.050 C 24.603 63.095 29.614 63.060 34.597 63.050 C 35.749 62.937 37.950 63.194 38.954 62.473 C 40.016 61.626 39.746 55.904 38.954 55.121 C 35.860 52.000 27.882 53.254 23.648 53.254 M 129.100 49.220 C 129.291 49.028 129.483 48.836 129.676 48.644 C 129.483 48.836 129.291 49.028 129.100 49.220 M 42.664 48.067 C 42.856 47.876 43.048 47.683 43.240 47.491 C 43.048 47.683 42.856 47.876 42.664 48.067 M 122.762 44.610 C 122.952 44.418 123.144 44.226 123.338 44.034 C 123.144 44.226 122.952 44.418 122.762 44.610 M 89.340 44.121 C 89.340 42.057 81.371 43.472 81.443 43.457 C 79.413 44.774 83.001 46.339 83.001 47.525 C 83.001 49.220 79.206 50.254 79.104 53.256 C 78.946 57.885 83.269 55.908 85.543 55.986 C 87.035 56.253 88.312 57.065 89.792 55.986 C 93.825 52.576 87.724 50.176 87.003 48.070 C 86.369 46.220 89.340 45.765 89.340 44.121 M 4.056 44.034 C 4.248 43.842 4.440 43.650 4.632 43.457 C 4.440 43.650 4.248 43.842 4.056 44.034 M 133.710 43.457 C 133.901 43.266 134.093 43.074 134.286 42.881 C 134.093 43.074 133.901 43.266 133.710 43.457 M 125.067 43.457 C 125.257 43.266 125.449 43.074 125.643 42.881 C 125.449 43.074 125.257 43.266 125.067 43.457 M 50.155 42.305 C 50.347 42.113 50.539 41.921 50.731 41.729 C 50.539 41.921 50.347 42.113 50.155 42.305 M 10.971 42.305 C 11.163 42.113 11.355 41.921 11.547 41.729 C 11.355 41.921 11.163 42.113 10.971 42.305 M 179.233 41.729 C 179.424 41.537 179.616 41.345 179.810 41.152 C 179.616 41.345 179.424 41.537 179.233 41.729 M 12.123 41.152 C 12.315 40.961 12.507 40.769 12.699 40.576 C 12.507 40.769 12.315 40.961 12.123 41.152 M 122.762 39.424 C 122.952 39.232 123.144 39.040 123.338 38.848 C 123.144 39.040 122.952 39.232 122.762 39.424 M 134.286 37.119 C 134.477 36.927 134.669 36.735 134.863 36.543 C 134.669 36.735 134.477 36.927 134.286 37.119 M 90.492 39.559 C 93.949 38.653 94.945 35.239 91.068 36.253 C 87.972 37.119 87.309 40.399 90.492 39.559 M 81.754 39.651 C 82.917 37.729 77.815 35.205 76.608 36.543 C 74.772 38.341 80.913 41.041 81.754 39.651 M 137.168 35.391 C 136.359 35.402 133.528 35.390 132.999 35.966 C 132.558 36.543 132.558 39.250 132.558 40.034 C 132.550 41.034 132.346 44.034 133.067 44.669 C 133.687 45.265 137.861 45.186 138.896 45.186 C 142.545 45.222 146.196 45.194 149.845 45.186 C 155.273 45.186 154.567 43.643 154.453 38.850 C 154.428 37.836 154.455 36.692 153.622 36.001 C 152.726 35.390 150.932 35.398 149.845 35.391 C 145.622 35.390 141.391 35.390 137.168 35.391 M 122.453 36.543 C 122.087 36.253 122.502 35.818 122.762 36.027 C 123.195 36.246 122.762 36.696 122.453 36.543 M 74.697 35.966 C 75.174 34.831 75.730 32.773 76.898 32.069 C 77.543 31.933 78.820 31.939 79.543 32.069 C 82.249 31.933 91.385 31.356 93.188 32.781 C 95.232 34.456 96.423 38.271 97.404 40.576 C 98.829 44.039 99.506 45.979 98.987 49.796 C 98.937 50.163 98.559 52.276 98.333 52.472 C 98.100 52.677 97.928 51.014 97.915 50.949 C 97.746 49.976 96.699 46.205 95.469 46.205 C 95.007 46.205 95.278 47.326 95.469 47.517 C 95.555 48.991 95.678 50.000 95.469 51.525 C 95.266 57.352 93.029 55.832 90.109 59.592 C 89.340 60.484 88.318 63.410 87.781 62.659 C 87.610 62.473 87.448 61.375 87.138 61.321 C 85.306 60.790 85.278 64.366 83.535 64.004 C 80.696 63.425 80.468 60.412 78.782 58.591 C 77.727 57.452 75.772 56.464 75.196 55.333 C 74.353 53.681 74.460 50.993 74.631 49.222 C 74.778 48.806 75.148 47.326 74.631 47.120 C 73.513 46.770 72.052 49.626 71.792 50.372 C 71.743 50.412 71.372 51.525 71.099 51.320 C 70.716 50.992 70.900 47.503 71.099 46.915 C 71.582 43.268 73.205 39.424 74.697 35.966 M 124.039 33.261 C 123.809 32.930 124.490 31.933 124.933 32.117 C 125.499 32.509 124.396 33.780 124.039 33.261 M 122.185 31.356 C 122.376 31.165 122.568 30.973 122.762 30.780 C 122.568 30.973 122.376 31.165 122.185 31.356 M 120.958 30.650 C 120.957 30.545 120.957 30.440 120.958 30.334 C 120.957 30.440 120.957 30.545 120.958 30.650 M 70.007 32.509 C 70.772 29.628 70.249 24.441 74.921 24.796 C 76.439 25.018 77.238 26.204 76.919 26.953 C 76.561 27.710 75.308 26.816 74.357 28.067 C 73.779 28.906 73.611 31.356 73.157 32.509 C 72.491 34.267 71.372 35.583 70.324 37.119 C 69.747 37.890 68.280 41.196 68.160 38.848 C 68.159 38.656 68.159 38.464 68.160 38.271 C 68.469 36.246 69.498 34.452 70.007 32.509 M 123.338 22.136 C 123.529 21.945 123.721 21.753 123.914 21.560 C 123.721 21.753 123.529 21.945 123.338 22.136 M 81.161 27.118 C 80.326 26.888 77.238 22.777 80.696 21.777 C 82.153 21.343 88.299 21.560 89.916 21.777 C 90.246 21.848 92.463 22.182 92.592 22.408 C 92.721 22.713 92.139 22.936 92.050 22.997 C 91.310 23.502 90.650 23.940 89.916 24.515 C 89.632 24.780 88.593 25.852 88.187 25.965 C 87.580 26.194 89.121 23.470 87.961 23.518 C 88.732 23.486 82.561 25.318 83.163 24.915 C 82.425 25.392 81.825 27.323 81.161 27.118 M 127.372 21.560 C 127.562 21.369 127.754 21.177 127.948 20.984 C 127.754 21.177 127.562 21.369 127.372 21.560 M 122.310 20.984 C 121.497 20.984 121.416 19.848 122.310 19.646 C 123.338 19.382 123.338 20.984 122.310 20.984 M 48.426 19.255 C 48.618 19.064 48.810 18.872 49.003 18.679 C 48.810 18.872 48.618 19.064 48.426 19.255 M 9.242 19.255 C 9.434 19.064 9.626 18.872 9.818 18.679 C 9.626 18.872 9.434 19.064 9.242 19.255 M 180.962 16.950 C 179.355 16.950 171.972 16.587 171.099 17.527 C 170.493 18.103 170.590 19.606 170.590 20.408 C 170.560 23.599 169.437 26.634 173.471 26.746 C 177.843 26.863 184.538 25.996 185.400 31.933 C 186.148 37.391 179.810 38.848 175.776 38.848 C 172.683 38.899 170.697 37.904 170.590 41.731 C 170.555 43.102 170.180 47.688 171.438 48.371 C 172.870 49.220 178.224 47.718 180.925 49.581 C 184.094 51.765 184.212 57.864 184.996 61.321 C 185.367 63.050 185.801 65.065 187.301 65.998 C 188.443 66.616 191.670 66.507 193.063 66.507 C 194.216 66.523 197.020 66.806 197.964 65.998 C 199.308 64.847 197.071 61.897 196.653 60.317 C 196.243 58.844 196.479 57.354 195.897 55.593 C 195.614 54.734 194.633 53.338 194.486 53.063 C 194.495 52.247 196.057 52.277 194.486 48.067 C 193.960 47.035 190.582 42.533 190.582 42.576 C 190.584 42.374 193.864 40.000 194.366 39.424 C 196.736 36.401 197.222 33.276 197.086 29.628 C 196.731 20.049 189.383 16.966 180.962 16.950 M 161.370 16.950 C 160.568 16.958 159.027 16.950 158.422 17.527 C 157.546 18.335 157.912 25.712 157.912 27.323 C 157.911 37.119 157.911 46.915 157.912 56.711 C 157.912 58.266 157.553 65.129 158.422 65.998 C 158.963 66.539 160.090 66.507 160.794 66.507 C 162.329 66.507 163.865 66.507 165.404 66.507 C 166.292 66.507 168.275 66.650 168.861 65.998 C 169.437 65.451 169.415 64.334 169.436 63.626 C 169.437 60.939 169.437 58.244 169.436 55.559 C 169.434 44.034 169.434 32.509 169.436 20.984 C 169.435 20.074 169.611 18.143 168.861 17.527 C 167.972 16.504 162.832 16.950 161.370 16.950 M 139.473 16.950 C 138.210 16.950 133.885 16.641 133.067 17.527 C 132.293 18.234 132.293 25.463 133.067 26.237 C 133.672 26.842 135.214 26.746 136.015 26.746 C 141.200 26.794 146.387 26.758 151.574 26.746 C 152.596 26.746 154.455 26.880 155.335 26.237 C 156.510 25.327 156.557 18.939 155.607 17.799 C 154.915 16.819 153.260 16.960 152.150 16.950 C 147.923 16.951 143.697 16.951 139.473 16.950 M 123.914 17.389 C 122.762 17.328 120.791 16.485 119.814 17.389 C 117.937 19.329 120.730 23.865 120.604 24.452 C 120.457 25.018 119.663 25.654 119.413 27.899 C 119.142 29.837 119.659 31.356 119.413 33.085 C 119.659 34.587 119.304 36.135 119.413 37.695 C 119.294 43.264 119.245 48.838 119.413 54.406 C 119.304 56.569 119.123 62.473 119.880 64.043 C 120.359 64.841 121.152 65.749 122.138 65.710 C 123.338 65.660 122.729 63.891 123.220 63.843 C 123.707 63.795 124.754 65.064 125.213 65.515 C 126.487 66.258 129.334 66.836 130.556 65.515 C 131.744 64.500 131.402 58.543 131.399 56.711 C 131.405 52.497 131.514 48.247 131.399 44.041 C 131.358 42.881 131.043 41.813 131.038 41.004 C 131.029 40.000 131.372 38.489 131.404 37.119 C 131.516 31.948 131.405 26.746 131.404 21.560 C 131.390 14.936 128.735 17.275 123.914 17.389 M 45.545 13.493 C 44.657 13.495 42.664 13.347 42.021 14.069 C 41.417 14.645 41.511 16.148 41.511 16.950 C 41.511 20.024 41.511 23.097 41.511 26.170 C 41.511 34.625 41.632 43.078 41.511 51.527 C 41.490 53.254 41.362 61.188 42.088 62.201 C 42.973 63.421 45.545 62.938 46.924 62.917 C 48.426 62.892 52.129 63.444 53.036 62.211 C 53.950 61.082 53.584 53.403 53.611 51.525 C 53.765 40.392 53.613 29.240 53.611 18.103 C 53.599 11.891 50.662 13.493 45.545 13.493 M 9.818 13.493 C 8.525 13.493 3.628 13.211 2.836 14.069 C 2.232 14.645 2.327 16.148 2.327 16.950 C 2.327 20.024 2.327 23.097 2.327 26.170 C 2.327 37.322 2.764 48.534 2.327 59.669 C 2.241 63.802 3.263 63.050 7.740 62.917 C 9.358 62.891 13.396 63.626 14.066 61.897 C 14.273 61.330 14.428 51.129 14.427 49.796 C 14.385 40.390 14.530 30.973 14.427 21.560 C 14.408 20.009 14.696 14.867 13.579 14.069 C 12.699 13.365 10.835 13.495 9.818 13.493 M 103.169 14.069 C 96.464 12.097 86.435 10.880 79.543 12.004 C 72.159 13.208 65.337 16.950 61.104 23.289 C 52.188 36.854 55.832 59.786 72.052 65.931 C 79.142 68.579 87.174 67.941 93.949 64.587 C 95.343 63.897 100.864 59.935 100.829 59.956 C 101.586 59.706 101.430 61.507 101.438 61.902 C 101.441 62.908 101.218 65.931 101.950 66.564 C 102.956 67.480 105.583 66.033 106.627 65.591 C 111.580 63.497 114.681 63.825 114.694 57.864 C 114.693 50.949 114.693 44.034 114.694 37.119 C 114.692 36.228 114.844 34.253 114.118 33.661 C 113.313 32.723 105.928 33.085 104.322 33.085 C 103.350 33.087 101.079 32.821 100.635 33.934 C 100.416 34.489 100.757 36.291 100.635 37.119 C 100.754 37.119 100.698 37.871 100.635 37.871 C 100.288 37.871 100.158 37.119 100.139 37.119 C 99.891 36.282 99.667 35.534 99.326 34.814 C 99.445 35.064 94.778 27.791 95.102 28.213 C 94.206 27.199 92.772 28.475 92.463 26.746 C 92.221 25.766 93.138 23.636 93.949 23.289 C 94.776 22.791 97.014 23.865 98.559 23.646 C 100.071 23.434 104.438 21.076 106.051 20.269 C 106.960 19.832 110.575 18.375 110.278 17.102 C 110.009 15.951 104.322 14.330 103.169 14.069 Z"/>
<path id="S3" fill="#dacd48" fill-rule="evenodd" stroke="none" d="M 199.114 67.858 C 199.661 67.722 199.402 67.095 199.114 67.229 C 198.570 67.365 198.784 67.992 199.114 67.858 M 139.473 65.931 C 139.663 65.739 139.855 65.547 140.049 65.355 C 139.855 65.547 139.663 65.739 139.473 65.931 M 135.359 61.957 C 135.348 61.897 135.416 60.745 135.781 60.950 C 136.197 61.191 136.440 63.106 136.344 63.626 C 136.487 63.637 136.528 64.778 136.344 64.573 C 135.749 64.287 135.405 62.473 135.359 61.957 M 119.592 62.268 C 120.123 61.788 119.521 59.818 119.592 59.797 C 119.062 60.277 119.663 62.248 119.592 62.268 M 119.880 58.440 C 119.687 58.248 119.495 58.056 119.304 57.864 C 119.495 58.056 119.687 58.248 119.880 58.440 M 138.896 56.762 C 137.691 56.714 136.394 56.583 135.288 57.147 C 135.045 57.287 133.134 58.622 133.048 58.787 C 133.113 58.687 131.647 65.136 133.820 66.357 C 134.738 66.569 136.591 66.398 137.744 66.357 C 142.545 66.514 147.346 66.516 152.150 66.357 C 153.109 66.507 155.031 66.637 155.806 66.019 C 156.952 65.095 156.915 58.149 155.806 57.287 C 155.031 56.614 153.589 56.820 152.726 56.762 C 148.116 56.776 143.506 56.711 138.896 56.762 M 119.633 56.331 C 119.751 56.220 119.733 54.996 119.633 55.185 C 119.237 55.559 119.511 57.117 119.633 56.331 M 131.393 56.147 C 131.297 54.737 130.934 53.503 129.100 54.203 C 126.697 55.191 127.372 59.729 127.293 61.897 C 127.358 62.517 127.097 65.355 127.293 65.616 C 127.533 66.507 128.926 66.507 129.632 66.190 C 131.981 65.355 131.546 58.440 131.393 56.147 M 119.870 47.507 C 119.867 47.491 119.737 45.772 119.499 45.968 C 119.209 46.339 119.286 50.804 119.499 51.525 C 119.304 51.574 119.448 53.254 119.499 53.048 C 119.880 52.716 119.880 48.212 119.870 47.507 M 89.340 44.121 C 89.340 42.057 81.371 43.472 81.443 43.457 C 79.413 44.774 83.001 46.339 83.001 47.525 C 83.001 49.220 79.206 50.254 79.104 53.256 C 78.946 57.885 83.269 55.908 85.543 55.986 C 87.035 56.253 88.312 57.065 89.792 55.986 C 93.825 52.576 87.724 50.176 87.003 48.070 C 86.369 46.220 89.340 45.765 89.340 44.121 M 133.710 43.457 C 133.901 43.266 134.093 43.074 134.286 42.881 C 134.093 43.074 133.901 43.266 133.710 43.457 M 179.233 41.729 C 179.424 41.537 179.616 41.345 179.810 41.152 C 179.616 41.345 179.424 41.537 179.233 41.729 M 134.286 37.119 C 134.477 36.927 134.669 36.735 134.863 36.543 C 134.669 36.735 134.477 36.927 134.286 37.119 M 119.870 38.287 C 119.867 38.271 119.737 36.552 119.499 36.748 C 119.209 37.119 119.286 41.584 119.499 42.305 C 119.304 42.355 119.448 44.034 119.499 43.829 C 119.880 43.496 119.880 38.992 119.870 38.287 M 90.492 39.559 C 93.949 38.653 94.945 35.239 91.068 36.253 C 87.972 37.119 87.309 40.399 90.492 39.559 M 81.754 39.651 C 82.917 37.729 77.815 35.205 76.608 36.543 C 74.772 38.341 80.913 41.041 81.754 39.651 M 137.168 35.391 C 136.359 35.402 133.528 35.390 132.999 35.966 C 132.558 36.543 132.558 39.250 132.558 40.034 C 132.550 41.034 132.346 44.034 133.067 44.669 C 133.687 45.265 137.861 45.186 138.896 45.186 C 142.545 45.222 146.196 45.194 149.845 45.186 C 155.273 45.186 154.567 43.643 154.453 38.850 C 154.428 37.836 154.455 36.692 153.622 36.001 C 152.726 35.390 150.932 35.398 149.845 35.391 C 145.622 35.390 141.391 35.390 137.168 35.391 M 131.038 41.004 C 131.027 39.636 132.497 34.440 129.100 35.763 C 126.420 36.862 127.117 43.020 128.470 44.977 C 128.707 45.319 130.563 47.775 130.940 47.511 C 131.335 47.234 131.388 45.072 131.393 44.610 C 131.405 42.574 131.044 41.959 131.038 41.004 M 74.697 35.966 C 75.174 34.831 75.730 32.773 76.898 32.069 C 77.543 31.933 78.820 31.939 79.543 32.069 C 82.249 31.933 91.385 31.356 93.188 32.781 C 95.232 34.456 96.423 38.271 97.404 40.576 C 98.829 44.039 99.506 45.979 98.987 49.796 C 98.937 50.163 98.559 52.276 98.333 52.472 C 98.100 52.677 97.928 51.014 97.915 50.949 C 97.746 49.976 96.699 46.205 95.469 46.205 C 95.007 46.205 95.278 47.326 95.469 47.517 C 95.555 48.991 95.678 50.000 95.469 51.525 C 95.266 57.352 93.029 55.832 90.109 59.592 C 89.340 60.484 88.318 63.410 87.781 62.659 C 87.610 62.473 87.448 61.375 87.138 61.321 C 85.306 60.790 85.278 64.366 83.535 64.004 C 80.696 63.425 80.468 60.412 78.782 58.591 C 77.727 57.452 75.772 56.464 75.196 55.333 C 74.353 53.681 74.460 50.993 74.631 49.222 C 74.778 48.806 75.148 47.326 74.631 47.120 C 73.513 46.770 72.052 49.626 71.792 50.372 C 71.743 50.412 71.372 51.525 71.099 51.320 C 70.716 50.992 70.900 47.503 71.099 46.915 C 71.582 43.268 73.205 39.424 74.697 35.966 M 120.457 26.230 C 120.628 26.170 120.897 25.018 120.457 25.223 C 119.642 25.594 119.410 27.671 119.509 28.475 C 119.304 28.475 119.304 29.636 119.509 29.422 C 119.696 29.379 120.457 26.496 120.457 26.230 M 70.007 32.509 C 70.772 29.628 70.249 24.441 74.921 24.796 C 76.439 25.018 77.238 26.204 76.919 26.953 C 76.561 27.710 75.308 26.816 74.357 28.067 C 73.779 28.906 73.611 31.356 73.157 32.509 C 72.491 34.267 71.372 35.583 70.324 37.119 C 69.747 37.890 68.280 41.196 68.160 38.848 C 68.159 38.656 68.159 38.464 68.160 38.271 C 68.469 36.246 69.498 34.452 70.007 32.509 M 81.161 27.118 C 80.326 26.888 77.238 22.777 80.696 21.777 C 82.153 21.343 88.299 21.560 89.916 21.777 C 90.246 21.848 92.463 22.182 92.592 22.408 C 92.721 22.713 92.139 22.936 92.050 22.997 C 91.310 23.502 90.650 23.940 89.916 24.515 C 89.632 24.780 88.593 25.852 88.187 25.965 C 87.580 26.194 89.121 23.470 87.961 23.518 C 88.732 23.486 82.561 25.318 83.163 24.915 C 82.425 25.392 81.825 27.323 81.161 27.118 M 120.457 22.587 C 121.186 22.149 120.443 20.545 119.777 21.030 C 119.125 21.560 119.880 23.037 120.457 22.587 M 180.962 16.950 C 179.355 16.950 171.972 16.587 171.099 17.527 C 170.493 18.103 170.590 19.606 170.590 20.408 C 170.560 23.599 169.437 26.634 173.471 26.746 C 177.843 26.863 184.538 25.996 185.400 31.933 C 186.148 37.391 179.810 38.848 175.776 38.848 C 172.683 38.899 170.697 37.904 170.590 41.731 C 170.555 43.102 170.180 47.688 171.438 48.371 C 172.870 49.220 178.224 47.718 180.925 49.581 C 184.094 51.765 184.212 57.864 184.996 61.321 C 185.367 63.050 185.801 65.065 187.301 65.998 C 188.443 66.616 191.670 66.507 193.063 66.507 C 194.216 66.523 197.020 66.806 197.964 65.998 C 199.308 64.847 197.071 61.897 196.653 60.317 C 196.243 58.844 196.479 57.354 195.897 55.593 C 195.614 54.734 194.633 53.338 194.486 53.063 C 194.495 52.247 196.057 52.277 194.486 48.067 C 193.960 47.035 190.582 42.533 190.582 42.576 C 190.584 42.374 193.864 40.000 194.366 39.424 C 196.736 36.401 197.222 33.276 197.086 29.628 C 196.731 20.049 189.383 16.966 180.962 16.950 M 161.370 16.950 C 160.568 16.958 159.027 16.950 158.422 17.527 C 157.546 18.335 157.912 25.712 157.912 27.323 C 157.911 37.119 157.911 46.915 157.912 56.711 C 157.912 58.266 157.553 65.129 158.422 65.998 C 158.963 66.539 160.090 66.507 160.794 66.507 C 162.329 66.507 163.865 66.507 165.404 66.507 C 166.292 66.507 168.275 66.650 168.861 65.998 C 169.437 65.451 169.415 64.334 169.436 63.626 C 169.437 60.939 169.437 58.244 169.436 55.559 C 169.434 44.034 169.434 32.509 169.436 20.984 C 169.435 20.074 169.611 18.143 168.861 17.527 C 167.972 16.504 162.832 16.950 161.370 16.950 M 139.473 16.950 C 138.210 16.950 133.885 16.641 133.067 17.527 C 132.293 18.234 132.293 25.463 133.067 26.237 C 133.672 26.842 135.214 26.746 136.015 26.746 C 141.200 26.794 146.387 26.758 151.574 26.746 C 152.596 26.746 154.455 26.880 155.335 26.237 C 156.510 25.327 156.557 18.939 155.607 17.799 C 154.915 16.819 153.260 16.960 152.150 16.950 C 147.923 16.951 143.697 16.951 139.473 16.950 M 131.152 18.226 C 130.625 17.117 128.804 16.547 127.881 17.527 C 126.671 18.679 127.565 25.229 128.470 26.537 C 128.712 26.887 130.578 29.356 131.152 29.051 C 131.276 28.776 131.327 27.077 131.152 26.746 C 131.405 25.264 131.584 19.255 131.152 18.226 M 103.169 14.069 C 96.464 12.097 86.435 10.880 79.543 12.004 C 72.159 13.208 65.337 16.950 61.104 23.289 C 52.188 36.854 55.832 59.786 72.052 65.931 C 79.142 68.579 87.174 67.941 93.949 64.587 C 95.343 63.897 100.864 59.935 100.829 59.956 C 101.586 59.706 101.430 61.507 101.438 61.902 C 101.441 62.908 101.218 65.931 101.950 66.564 C 102.956 67.480 105.583 66.033 106.627 65.591 C 111.580 63.497 114.681 63.825 114.694 57.864 C 114.693 50.949 114.693 44.034 114.694 37.119 C 114.692 36.228 114.844 34.253 114.118 33.661 C 113.313 32.723 105.928 33.085 104.322 33.085 C 103.350 33.087 101.079 32.821 100.635 33.934 C 100.416 34.489 100.757 36.291 100.635 37.119 C 100.754 37.119 100.698 37.871 100.635 37.871 C 100.288 37.871 100.158 37.119 100.139 37.119 C 99.891 36.282 99.667 35.534 99.326 34.814 C 99.445 35.064 94.778 27.791 95.102 28.213 C 94.206 27.199 92.772 28.475 92.463 26.746 C 92.221 25.766 93.138 23.636 93.949 23.289 C 94.776 22.791 97.014 23.865 98.559 23.646 C 100.071 23.434 104.438 21.076 106.051 20.269 C 106.960 19.832 110.575 18.375 110.278 17.102 C 110.009 15.951 104.322 14.330 103.169 14.069 Z"/>
<path id="S4" fill="#f6f7f6" fill-rule="evenodd" stroke="none" d="M 199.114 67.858 C 199.661 67.722 199.402 67.095 199.114 67.229 C 198.570 67.365 198.784 67.992 199.114 67.858 M 139.473 65.931 C 139.663 65.739 139.855 65.547 140.049 65.355 C 139.855 65.547 139.663 65.739 139.473 65.931 M 135.359 61.957 C 135.348 61.897 135.416 60.745 135.781 60.950 C 136.197 61.191 136.440 63.106 136.344 63.626 C 136.487 63.637 136.528 64.778 136.344 64.573 C 135.749 64.287 135.405 62.473 135.359 61.957 M 119.592 62.268 C 120.123 61.788 119.521 59.818 119.592 59.797 C 119.062 60.277 119.663 62.248 119.592 62.268 M 119.880 58.440 C 119.687 58.248 119.495 58.056 119.304 57.864 C 119.495 58.056 119.687 58.248 119.880 58.440 M 138.896 56.762 C 137.691 56.714 136.394 56.583 135.288 57.147 C 135.045 57.287 133.134 58.622 133.048 58.787 C 133.113 58.687 131.647 65.136 133.820 66.357 C 134.738 66.569 136.591 66.398 137.744 66.357 C 142.545 66.514 147.346 66.516 152.150 66.357 C 153.109 66.507 155.031 66.637 155.806 66.019 C 156.952 65.095 156.915 58.149 155.806 57.287 C 155.031 56.614 153.589 56.820 152.726 56.762 C 148.116 56.776 143.506 56.711 138.896 56.762 M 119.633 56.331 C 119.751 56.220 119.733 54.996 119.633 55.185 C 119.237 55.559 119.511 57.117 119.633 56.331 M 131.393 56.147 C 131.297 54.737 130.934 53.503 129.100 54.203 C 126.697 55.191 127.372 59.729 127.293 61.897 C 127.358 62.517 127.097 65.355 127.293 65.616 C 127.533 66.507 128.926 66.507 129.632 66.190 C 131.981 65.355 131.546 58.440 131.393 56.147 M 119.870 47.507 C 119.867 47.491 119.737 45.772 119.499 45.968 C 119.209 46.339 119.286 50.804 119.499 51.525 C 119.304 51.574 119.448 53.254 119.499 53.048 C 119.880 52.716 119.880 48.212 119.870 47.507 M 133.710 43.457 C 133.901 43.266 134.093 43.074 134.286 42.881 C 134.093 43.074 133.901 43.266 133.710 43.457 M 179.233 41.729 C 179.424 41.537 179.616 41.345 179.810 41.152 C 179.616 41.345 179.424 41.537 179.233 41.729 M 134.286 37.119 C 134.477 36.927 134.669 36.735 134.863 36.543 C 134.669 36.735 134.477 36.927 134.286 37.119 M 119.870 38.287 C 119.867 38.271 119.737 36.552 119.499 36.748 C 119.209 37.119 119.286 41.584 119.499 42.305 C 119.304 42.355 119.448 44.034 119.499 43.829 C 119.880 43.496 119.880 38.992 119.870 38.287 M 137.168 35.391 C 136.359 35.402 133.528 35.390 132.999 35.966 C 132.558 36.543 132.558 39.250 132.558 40.034 C 132.550 41.034 132.346 44.034 133.067 44.669 C 133.687 45.265 137.861 45.186 138.896 45.186 C 142.545 45.222 146.196 45.194 149.845 45.186 C 155.273 45.186 154.567 43.643 154.453 38.850 C 154.428 37.836 154.455 36.692 153.622 36.001 C 152.726 35.390 150.932 35.398 149.845 35.391 C 145.622 35.390 141.391 35.390 137.168 35.391 M 131.038 41.004 C 131.027 39.636 132.497 34.440 129.100 35.763 C 126.420 36.862 127.117 43.020 128.470 44.977 C 128.707 45.319 130.563 47.775 130.940 47.511 C 131.335 47.234 131.388 45.072 131.393 44.610 C 131.405 42.574 131.044 41.959 131.038 41.004 M 120.457 26.230 C 120.628 26.170 120.897 25.018 120.457 25.223 C 119.642 25.594 119.410 27.671 119.509 28.475 C 119.304 28.475 119.304 29.636 119.509 29.422 C 119.696 29.379 120.457 26.496 120.457 26.230 M 120.457 22.587 C 121.186 22.149 120.443 20.545 119.777 21.030 C 119.125 21.560 119.880 23.037 120.457 22.587 M 180.962 16.950 C 179.355 16.950 171.972 16.587 171.099 17.527 C 170.493 18.103 170.590 19.606 170.590 20.408 C 170.560 23.599 169.437 26.634 173.471 26.746 C 177.843 26.863 184.538 25.996 185.400 31.933 C 186.148 37.391 179.810 38.848 175.776 38.848 C 172.683 38.899 170.697 37.904 170.590 41.731 C 170.555 43.102 170.180 47.688 171.438 48.371 C 172.870 49.220 178.224 47.718 180.925 49.581 C 184.094 51.765 184.212 57.864 184.996 61.321 C 185.367 63.050 185.801 65.065 187.301 65.998 C 188.443 66.616 191.670 66.507 193.063 66.507 C 194.216 66.523 197.020 66.806 197.964 65.998 C 199.308 64.847 197.071 61.897 196.653 60.317 C 196.243 58.844 196.479 57.354 195.897 55.593 C 195.614 54.734 194.633 53.338 194.486 53.063 C 194.495 52.247 196.057 52.277 194.486 48.067 C 193.960 47.035 190.582 42.533 190.582 42.576 C 190.584 42.374 193.864 40.000 194.366 39.424 C 196.736 36.401 197.222 33.276 197.086 29.628 C 196.731 20.049 189.383 16.966 180.962 16.950 M 161.370 16.950 C 160.568 16.958 159.027 16.950 158.422 17.527 C 157.546 18.335 157.912 25.712 157.912 27.323 C 157.911 37.119 157.911 46.915 157.912 56.711 C 157.912 58.266 157.553 65.129 158.422 65.998 C 158.963 66.539 160.090 66.507 160.794 66.507 C 162.329 66.507 163.865 66.507 165.404 66.507 C 166.292 66.507 168.275 66.650 168.861 65.998 C 169.437 65.451 169.415 64.334 169.436 63.626 C 169.437 60.939 169.437 58.244 169.436 55.559 C 169.434 44.034 169.434 32.509 169.436 20.984 C 169.435 20.074 169.611 18.143 168.861 17.527 C 167.972 16.504 162.832 16.950 161.370 16.950 M 139.473 16.950 C 138.210 16.950 133.885 16.641 133.067 17.527 C 132.293 18.234 132.293 25.463 133.067 26.237 C 133.672 26.842 135.214 26.746 136.015 26.746 C 141.200 26.794 146.387 26.758 151.574 26.746 C 152.596 26.746 154.455 26.880 155.335 26.237 C 156.510 25.327 156.557 18.939 155.607 17.799 C 154.915 16.819 153.260 16.960 152.150 16.950 C 147.923 16.951 143.697 16.951 139.473 16.950 M 131.152 18.226 C 130.625 17.117 128.804 16.547 127.881 17.527 C 126.671 18.679 127.565 25.229 128.470 26.537 C 128.712 26.887 130.578 29.356 131.152 29.051 C 131.276 28.776 131.327 27.077 131.152 26.746 C 131.405 25.264 131.584 19.255 131.152 18.226 Z"/>
</g>
</svg>
